<?xml version="1.0" encoding="utf-8"?>
<!-- Generator: Adobe Illustrator 23.0.6, SVG Export Plug-In . SVG Version: 6.00 Build 0)  -->
<svg version="1.1" id="Layer_1" xmlns="http://www.w3.org/2000/svg" xmlns:xlink="http://www.w3.org/1999/xlink" x="0px" y="0px"
	 viewBox="0 0 367.5 335.9" style="enable-background:new 0 0 367.5 335.9;" xml:space="preserve">
<path d="M182.7,295.1c-9.4,9.3-9.4,24.5,0,33.9c4.7,4.7,10.9,7,17,7s12.3-2.3,17-7l144.6-144.9c8.6-9.4,8.4-24-0.7-33.1L216.6,7.1
	c-9.4-9.3-24.6-9.4-34,0c-9.4,9.3-9.4,24.5,0,33.9l127.1,127L182.7,295.1z"/>
<path d="M7.2,295c-9.4,9.3-9.4,24.5,0,33.9c4.7,4.7,10.9,7,17,7s12.3-2.3,17-7L185.7,184c8.6-9.4,8.4-24-0.7-33.1L41,7
	C31.7-2.3,16.4-2.4,7,7c-9.4,9.3-9.4,24.5,0,33.9l127.1,127L7.2,295z"/>
</svg>
